<svg width="242" height="242" viewBox="0 0 242 242" fill="none" xmlns="http://www.w3.org/2000/svg">
<path d="M31.0453 179.524V51.0996H183.766V130.931H190.708V30.2741C190.703 26.5932 189.239 23.0642 186.637 20.4614C184.034 17.8586 180.505 16.3946 176.824 16.3904H37.9872C34.3063 16.3946 30.7773 17.8586 28.1745 20.4614C25.5717 23.0642 24.1076 26.5932 24.1035 30.2741V179.524C24.1076 183.204 25.5717 186.733 28.1745 189.336C30.7773 191.939 34.3063 193.403 37.9872 193.407H121.289V186.465H37.9872C36.1468 186.463 34.3823 185.731 33.081 184.43C31.7796 183.128 31.0475 181.364 31.0453 179.524V179.524ZM37.9872 23.3323H176.824C178.664 23.3345 180.429 24.0665 181.73 25.3679C183.031 26.6693 183.763 28.4337 183.766 30.2741V44.1578H31.0453V30.2741C31.0475 28.4337 31.7796 26.6693 33.081 25.3679C34.3823 24.0665 36.1468 23.3345 37.9872 23.3323V23.3323Z" fill="white"/>
<path d="M37.9871 30.2741H44.9289V37.2159H37.9871V30.2741Z" fill="white"/>
<path d="M51.8708 30.2741H58.8127V37.2159H51.8708V30.2741Z" fill="white"/>
<path d="M65.7546 30.2741H72.6965V37.2159H65.7546V30.2741Z" fill="white"/>
<path d="M208.062 158.698H196.797L193.106 145.781C192.171 142.523 190.079 139.719 187.222 137.896C184.364 136.073 180.94 135.356 177.591 135.882L127.066 143.86C125.445 144.115 123.903 144.731 122.552 145.663C121.201 146.594 120.077 147.818 119.262 149.242C118.448 150.667 117.964 152.256 117.847 153.893C117.729 155.53 117.981 157.172 118.583 158.698H110.876C110.191 158.698 109.521 158.901 108.951 159.281L99.4127 165.64H93.5217V172.582H99.4127L108.951 178.94C109.521 179.32 110.191 179.523 110.876 179.524H126.793L135.231 187.961C135.498 191.466 136.745 194.826 138.83 197.656C140.915 200.486 143.754 202.674 147.022 203.968L152.527 206.17V224.645H159.469V203.82C159.469 203.126 159.261 202.448 158.873 201.874C158.484 201.3 157.932 200.855 157.288 200.597L149.6 197.522C147.386 196.645 145.487 195.121 144.152 193.149C142.817 191.176 142.107 188.847 142.115 186.465C142.115 186.01 142.025 185.558 141.85 185.137C141.676 184.716 141.42 184.333 141.098 184.011L129.371 172.284C128.827 171.739 128.456 171.046 128.306 170.291C128.156 169.536 128.233 168.753 128.527 168.042C128.822 167.331 129.321 166.723 129.961 166.296C130.601 165.868 131.353 165.64 132.123 165.64H133.435C134.039 165.64 134.634 165.781 135.175 166.051L160.884 178.905L170.898 188.92L175.807 184.011L171.32 179.524H190.707V224.645H197.649V179.524H208.062C210.824 179.524 213.472 178.426 215.425 176.474C217.378 174.521 218.475 171.872 218.475 169.111C218.475 166.349 217.378 163.701 215.425 161.748C213.472 159.795 210.824 158.698 208.062 158.698V158.698ZM106.721 169.111L111.927 165.64H122.015C121.159 167.859 121.057 170.298 121.724 172.582H111.927L106.721 169.111ZM132.123 158.698H128.775C127.763 158.7 126.788 158.32 126.044 157.634C125.3 156.948 124.843 156.006 124.763 154.997C124.684 153.988 124.989 152.986 125.617 152.192C126.245 151.398 127.149 150.87 128.149 150.715L178.674 142.737C180.348 142.474 182.061 142.832 183.49 143.743C184.919 144.655 185.965 146.058 186.431 147.687L189.577 158.698H171.32L175.807 154.211L170.898 149.302L161.503 158.698H132.123ZM163.76 172.582L149.876 165.64H197.649V172.582H163.76ZM208.062 172.582H204.591V165.64H208.062C208.983 165.64 209.865 166.006 210.516 166.656C211.167 167.307 211.533 168.19 211.533 169.111C211.533 170.031 211.167 170.914 210.516 171.565C209.865 172.216 208.983 172.582 208.062 172.582Z" fill="white"/>
<path d="M103.935 120.518V64.9832C103.935 64.0627 103.569 63.1799 102.918 62.5289C102.267 61.878 101.384 61.5123 100.464 61.5123H44.9289C44.0084 61.5123 43.1255 61.878 42.4746 62.5289C41.8237 63.1799 41.458 64.0627 41.458 64.9832V120.518C41.458 121.438 41.8237 122.321 42.4746 122.972C43.1255 123.623 44.0084 123.989 44.9289 123.989H100.464C101.384 123.989 102.267 123.623 102.918 122.972C103.569 122.321 103.935 121.438 103.935 120.518ZM72.6963 103.163C75.4569 103.167 78.1036 104.265 80.0556 106.217C82.0077 108.169 83.1058 110.815 83.109 113.576V117.047H62.2835V113.576C62.2867 110.815 63.3848 108.169 65.3369 106.217C67.289 104.265 69.9356 103.167 72.6963 103.163V103.163ZM65.7544 89.2797C65.7544 87.9067 66.1616 86.5646 66.9243 85.423C67.6871 84.2814 68.7713 83.3917 70.0397 82.8662C71.3082 82.3408 72.704 82.2034 74.0505 82.4712C75.3971 82.7391 76.634 83.4002 77.6049 84.371C78.5757 85.3419 79.2368 86.5788 79.5047 87.9254C79.7726 89.272 79.6351 90.6677 79.1097 91.9362C78.5843 93.2046 77.6945 94.2888 76.5529 95.0516C75.4114 95.8144 74.0692 96.2215 72.6963 96.2215C70.8558 96.2193 69.0914 95.4872 67.79 94.1859C66.4887 92.8845 65.7566 91.1201 65.7544 89.2797V89.2797ZM96.9927 117.047H90.0508V113.576C90.05 110.736 89.352 107.94 88.0182 105.432C86.6844 102.925 84.7556 100.783 82.4009 99.1952C84.3742 97.2664 85.728 94.7933 86.2895 92.0916C86.8509 89.3899 86.5946 86.5822 85.5532 84.0268C84.5117 81.4715 82.7325 79.2845 80.4425 77.7449C78.1525 76.2053 75.4557 75.383 72.6963 75.383C69.9368 75.383 67.24 76.2053 64.95 77.7449C62.66 79.2845 60.8808 81.4715 59.8393 84.0268C58.7979 86.5822 58.5416 89.3899 59.103 92.0916C59.6645 94.7933 61.0183 97.2664 62.9916 99.1952C60.6369 100.783 58.7081 102.925 57.3743 105.432C56.0405 107.94 55.3425 110.736 55.3417 113.576V117.047H48.3998V68.4542H96.9927V117.047Z" fill="white"/>
<path d="M58.8127 130.931H100.464V137.872H58.8127V130.931Z" fill="white"/>
<path d="M44.929 130.931H51.8708V137.872H44.929V130.931Z" fill="white"/>
<path d="M131.702 68.4542H173.353V75.396H131.702V68.4542Z" fill="white"/>
<path d="M117.818 82.3378H173.353V89.2797H117.818V82.3378Z" fill="white"/>
<path d="M117.818 96.2215H173.353V103.163H117.818V96.2215Z" fill="white"/>
<path d="M117.818 110.105H173.353V117.047H117.818V110.105Z" fill="white"/>
<path d="M117.818 68.4542H124.76V75.396H117.818V68.4542Z" fill="white"/>
<path d="M197.649 33.745H204.591V103.163H197.649V33.745Z" fill="white"/>
<path d="M197.649 110.105H204.591V117.047H197.649V110.105Z" fill="white"/>
<path d="M43.0243 159.321L38.2354 171.293L44.6808 173.871L48.7522 163.693L50.9185 168.026C51.3037 168.796 51.8483 169.476 52.5162 170.019C53.1841 170.563 53.96 170.959 54.7924 171.18C55.6249 171.401 56.4948 171.442 57.3445 171.301C58.1941 171.161 59.0042 170.841 59.7208 170.363L65.312 166.635L69.4792 170.802C70.042 171.368 70.7114 171.817 71.4487 172.122C72.186 172.427 72.9765 172.583 73.7745 172.581H86.58V165.64H74.1337L69.7183 161.223C68.7238 160.233 67.4178 159.617 66.0212 159.479C64.6245 159.34 63.223 159.689 62.0536 160.465L56.6867 164.041L54.0957 158.859C53.572 157.812 52.7567 156.938 51.748 156.344C50.7393 155.749 49.5801 155.458 48.4101 155.507C47.2402 155.556 46.1092 155.942 45.1534 156.618C44.1977 157.295 43.4578 158.233 43.023 159.321H43.0243Z" fill="white"/>
</svg>
